<?xml version="1.0" encoding="UTF-8"?><svg id="Layer_1" xmlns="http://www.w3.org/2000/svg" xmlns:xlink="http://www.w3.org/1999/xlink" viewBox="0 0 1960 1200"><defs><style>.cls-1,.cls-2{fill:none;}.cls-3{fill:#fff;opacity:.05;}.cls-2{stroke:#031126;stroke-miterlimit:10;stroke-width:3px;}.cls-4{clip-path:url(#clippath);}.cls-5{fill:#f8ca19;}.cls-6{fill:#8e4aec;}.cls-7{fill:#23c3a3;}.cls-8{fill:#0b3767;}</style><clipPath id="clippath"><rect id="SVGID" class="cls-1" x="-7220.14" y="524.25" width="6032.56" height="2214.41"/></clipPath></defs><g class="cls-4"><path class="cls-7" d="M28.82,2694.56C-827.83,2021.56-571.07,933.56-1552.04,967.92c-1106.67,38.82-1444.44,1790.56-2963.91,1812.91v932.53C-2077.74,3442.52,495.75,3061.4,28.82,2694.56Z"/></g><rect class="cls-8" width="1960" height="1200"/><path class="cls-3" d="M1368.17,404.46l-613.21,358.08c-233.04-134.76-468.43-270.88-468.43-270.88-12.96-7.48-28.93-7.48-41.9,0L-6.5,636.57v598.78H1953.5V71.36l-585.33,333.09Z"/><rect class="cls-2" x="-76.5" y="-92.5" width="2090" height="1361"/><polygon class="cls-7" points="114.55 333.13 114.55 302.21 141.34 286.74 168.12 302.21 168.12 333.13 141.34 348.6 114.55 333.13"/><polygon class="cls-6" points="1630.55 259.13 1630.55 228.21 1657.34 212.74 1684.12 228.21 1684.12 259.13 1657.34 274.6 1630.55 259.13"/><polygon class="cls-5" points="498.55 646.13 498.55 615.21 525.34 599.74 552.12 615.21 552.12 646.13 525.34 661.6 498.55 646.13"/></svg>